<svg xmlns="http://www.w3.org/2000/svg" width="307.311" height="307.311">
  <style>
    path { opacity: 0.1; -webkit-animation-name: fade; animation-name: fade; -webkit-animation-duration: 2400ms; animation-duration: 2400ms; -webkit-animation-iteration-count: infinite; animation-iteration-count: infinite; -webkit-animation-timing-function: ease-in-out; animation-timing-function: ease-in-out; } path:nth-of-type(1) { -webkit-animation-delay: 200ms; animation-delay: 200ms; } path:nth-of-type(2) { -webkit-animation-delay: 400ms; animation-delay: 400ms; } path:nth-of-type(3) { -webkit-animation-delay: 600ms; animation-delay: 600ms; } path:nth-of-type(4) { -webkit-animation-delay: 800ms; animation-delay: 800ms; } path:nth-of-type(5) { -webkit-animation-delay: 1000ms; animation-delay: 1000ms; } path:nth-of-type(6) { -webkit-animation-delay: 1200ms; animation-delay: 1200ms; } path:nth-of-type(7) { -webkit-animation-delay: 1400ms; animation-delay: 1400ms; } path:nth-of-type(8) { -webkit-animation-delay: 1600ms; animation-delay: 1600ms; } path:nth-of-type(9) { -webkit-animation-delay: 1800ms; animation-delay: 1800ms; } path:nth-of-type(10) { -webkit-animation-delay: 2000ms; animation-delay: 2000ms; } path:nth-of-type(11) { -webkit-animation-delay: 2200ms; animation-delay: 2200ms; } path:nth-of-type(12) { -webkit-animation-delay: 2400ms; animation-delay: 2400ms; } @-webkit-keyframes fade { 0% { opacity: 0.1; } 25% { opacity: 1; } 50% { opacity: 0.1; } 100% { opacity: 0.1; } } @keyframes fade { 0% { opacity: 0.1; } 25% { opacity: 1; } 50% { opacity: 0.1; } 100% { opacity: 0.1; } }
  </style>
  <path fill="#0064B5" d="M99.078 80.52c-39.14 29.175-60.29 90.39-43.634 140.776-1.912 19.354-.547 38.874 5.74 56.396-48.518-62.222-33.92-155.215 37.894-197.17z"/>
  <path fill="#00A3C7" d="M69.822 117.607c-19.31 44.835-7.018 108.423 32.6 143.732 8.02 17.71 18.963 33.932 33.17 45.97-73.13-29.63-106.984-117.46-65.77-189.708z"/>
  <path fill="#0FAD00" d="M63.03 164.354c5.696 48.483 48.134 97.405 100.098 108.176 15.805 11.333 33.393 19.91 51.71 23.228-78.145 10.905-151.38-48.234-151.808-131.404z"/>
  <path fill="#8CC700" d="M80.52 208.233c29.175 39.14 90.39 60.29 140.776 43.633 19.354 1.912 38.874.547 56.396-5.74-62.222 48.52-155.215 33.92-197.17-37.893z"/>
  <path fill="#FF0" d="M117.607 237.488c44.835 19.31 108.423 7.02 143.732-32.6 17.71-8.02 33.932-18.964 45.97-33.17-29.63 73.13-117.46 106.985-189.708 65.77z"/>
  <path fill="#FEC500" d="M164.354 244.28c48.482-5.695 97.405-48.133 108.176-100.098 11.333-15.804 19.91-33.393 23.228-51.71 10.905 78.145-48.234 151.38-131.404 151.808z"/>
  <path fill="#FF9400" d="M208.233 226.79c39.14-29.174 60.29-90.388 43.634-140.775 1.912-19.354.547-38.874-5.74-56.396 48.52 62.22 33.92 155.21-37.894 197.17z"/>
  <path fill="#F60" d="M237.488 189.703c19.31-44.835 7.018-108.422-32.6-143.732-8.02-17.71-18.963-33.933-33.168-45.97 73.13 29.63 106.983 117.46 65.768 189.707z"/>
  <path fill="#F00" d="M244.28 142.957c-5.695-48.482-48.133-97.405-100.098-108.176-15.804-11.33-33.392-19.91-51.71-23.222 78.144-10.91 151.378 48.23 151.808 131.4z"/>
  <path fill="#C5007C" d="M226.79 99.078c-29.174-39.14-90.388-60.29-140.775-43.634-19.353-1.912-38.874-.546-56.397 5.74C91.84 12.666 184.834 27.264 226.79 99.078z"/>
  <path fill="#6300A5" d="M189.703 69.822c-44.835-19.31-108.422-7.018-143.732 32.6-17.71 8.02-33.933 18.964-45.97 33.17C29.63 62.46 117.46 28.607 189.708 69.82z"/>
  <path fill="#0010A5" d="M142.957 63.03C94.475 68.726 45.552 111.164 34.78 163.128c-11.332 15.805-19.91 33.393-23.227 51.71C.647 136.694 59.787 63.46 142.957 63.03z"/>
</svg>
